<svg width="100" height="88" viewBox="0 0 100 88" fill="none" xmlns="http://www.w3.org/2000/svg">
<path d="M100 28.4472C100 53.6835 49.9987 87.2016 49.9987 87.2016C49.9987 87.2016 0 54.8919 0 28.4472C0 9.43816 12.3812 0.79834 27.6491 0.79834C34.7181 0.79834 41.1476 3.47095 46.0291 7.83803L33.2956 26.3236C32.9777 26.7852 32.8603 27.3576 32.971 27.9079C33.0816 28.4568 33.4105 28.9409 33.8829 29.244L52.8328 41.4213L44.1119 51.9472C43.6731 52.4765 43.5253 53.1883 43.7177 53.8482L48.5967 70.6769C48.858 71.5804 49.6849 72.1731 50.586 72.1731C50.7466 72.1731 50.9115 72.1528 51.0742 72.1149C52.1524 71.8556 52.8342 70.7932 52.625 69.7047L49.6611 54.3925L62.1004 41.8918C62.5189 41.4713 62.7363 40.8906 62.6998 40.3006C62.6635 39.7071 62.3745 39.1596 61.9058 38.7946L45.5202 26.0197L63.3291 4.63227C63.6909 4.19689 63.8584 3.63107 63.7935 3.06868C63.7611 2.77972 63.6651 2.50424 63.5208 2.25731C66.2914 1.31824 69.2552 0.79834 72.3456 0.79834C87.619 0.79834 100 13.1794 100 28.4472Z" fill="#8D9FCA"/>
</svg>
