<svg width="71" height="90" viewBox="0 0 71 90" fill="none" xmlns="http://www.w3.org/2000/svg">
<path d="M59.4625 28.6942C56.0821 25.6661 53.3819 21.9371 51.5446 17.7594C49.7073 13.5816 48.7756 9.05241 48.8125 4.47795C48.8084 3.66737 48.5885 2.87296 48.1762 2.17861C47.7639 1.48427 47.1743 0.915749 46.4698 0.533099C45.7654 0.150448 44.9721 -0.0321342 44.1738 0.00463376C43.3755 0.0414017 42.6018 0.296156 41.9344 0.741991C36.4463 4.05384 31.6597 8.43618 27.8514 13.6357C24.0431 18.8353 21.2885 24.7489 19.7469 31.0348C18.8508 29.4421 18.1786 27.7301 17.75 25.9485C17.585 25.1207 17.1937 24.3567 16.6209 23.7438C16.048 23.1309 15.3168 22.6939 14.5106 22.4826C13.7399 22.2438 12.9197 22.2224 12.1379 22.4206C11.3561 22.6189 10.6423 23.0293 10.0731 23.6079C4.4375 29.5944 0 44.9884 0 53.9907C0 76.8566 12.9575 90 35.5 90C58.0425 90 71 76.4965 71 53.9907C71 41.4775 64.8763 34.6807 59.4625 28.6942Z" fill="#8D9FCA"/>
</svg>
