<svg width="86" height="86" viewBox="0 0 86 86" fill="none" xmlns="http://www.w3.org/2000/svg">
<path d="M23.714 0.692322C10.6957 0.692322 0.142578 12.2652 0.142578 26.5455C0.142578 41.512 7.91473 55.6325 20.7676 68.5591C25.1545 72.9682 29.8778 76.8368 34.562 80.3105C36.2038 81.5233 37.7394 82.6237 39.116 83.5403C39.9551 84.0997 40.5084 84.5039 40.8568 84.7154C42.1511 85.5051 43.8482 85.5051 45.1425 84.7154C45.491 84.5039 46.0443 84.0997 46.8834 83.5403C48.26 82.6237 49.7955 81.5233 51.4374 80.3105C56.1217 76.8368 60.845 72.9682 65.2318 68.5591C78.0847 55.6325 85.8569 41.512 85.8569 26.5455C85.8569 12.2652 75.3037 0.692322 62.2854 0.692322C54.8917 0.692322 47.6728 5.11095 43.1334 11.5601C38.7071 4.99814 31.5137 0.692322 23.714 0.692322Z" fill="#8D9FCA"/>
</svg>
