<svg width="100" height="100" viewBox="0 0 100 100" fill="none" xmlns="http://www.w3.org/2000/svg">
<path fill-rule="evenodd" clip-rule="evenodd" d="M25 50C25 40.0135 25 35.0203 27.3797 31.4238C28.4424 29.8177 29.8177 28.4424 31.4238 27.3797C35.0203 25 40.0135 25 50 25C59.9865 25 64.9797 25 68.5762 27.3797C70.1823 28.4424 71.5577 29.8177 72.6203 31.4238C75 35.0203 75 40.0135 75 50C75 59.9865 75 64.9797 72.6203 68.5762C71.5577 70.1823 70.1823 71.5577 68.5762 72.6203C64.9797 75 59.9865 75 50 75C40.0135 75 35.0203 75 31.4238 72.6203C29.8177 71.5577 28.4424 70.1823 27.3797 68.5762C25 64.9797 25 59.9865 25 50ZM62.9424 50.0006C62.9424 57.1487 57.1477 62.9434 49.9996 62.9434C42.8514 62.9434 37.0568 57.1487 37.0568 50.0006C37.0568 42.8525 42.8514 37.0578 49.9996 37.0578C57.1477 37.0578 62.9424 42.8525 62.9424 50.0006ZM49.9996 58.5645C54.7293 58.5645 58.5635 54.7303 58.5635 50.0006C58.5635 45.2709 54.7293 41.4367 49.9996 41.4367C45.2698 41.4367 41.4357 45.2709 41.4357 50.0006C41.4357 54.7303 45.2698 58.5645 49.9996 58.5645ZM63.4535 39.4487C65.1331 39.4487 66.4947 38.0872 66.4947 36.4076C66.4947 34.728 65.1331 33.3664 63.4535 33.3664C61.7739 33.3664 60.4124 34.728 60.4124 36.4076C60.4124 38.0872 61.7739 39.4487 63.4535 39.4487Z" fill="#8D9FCA"/>
</svg>
