<svg width="84" height="91" viewBox="0 0 84 91" fill="none" xmlns="http://www.w3.org/2000/svg">
<path d="M45.1959 39.9668C45.948 39.216 46.3706 38.1977 46.3706 37.1359C46.3706 36.0741 45.948 35.0557 45.1959 34.3049C44.4437 33.5541 43.4236 33.1323 42.3599 33.1323C41.2962 33.1323 40.2761 33.5541 39.524 34.3049L7.88715 65.8933C-1.09821 52.5545 0.037625 34.6877 17.0244 17.7235C36.5506 -1.75383 79.8495 0.781038 79.8495 0.781038C80.7858 0.857999 81.6643 1.26372 82.3293 1.92613C82.9942 2.58855 83.4023 3.46478 83.4813 4.39919C83.4813 4.39919 86.0134 47.622 66.4873 67.1138C50.0214 83.558 32.6873 85.1251 19.4697 77.0294L7.25774 89.2199C6.88531 89.5917 6.44318 89.8866 5.95659 90.0878C5.47 90.289 4.94847 90.3925 4.42178 90.3925C3.8951 90.3925 3.37357 90.289 2.88697 90.0878C2.40038 89.8866 1.95825 89.5917 1.58582 89.2199C1.2134 88.8482 0.917979 88.4068 0.716425 87.9211C0.514871 87.4353 0.411133 86.9147 0.411133 86.3889C0.411133 85.8632 0.514871 85.3426 0.716425 84.8568C0.917979 84.3711 1.2134 83.9297 1.58582 83.558L45.1959 39.9668Z" fill="#8D9FCA"/>
</svg>
