<svg width="100" height="100" viewBox="0 0 100 100" fill="none" xmlns="http://www.w3.org/2000/svg">
<path d="M25 26.1668C25 24.5634 25.5631 23.2406 26.6892 22.1985C27.8153 21.1563 29.2793 20.6353 31.0811 20.6353C32.8507 20.6353 34.2825 21.1483 35.3764 22.1745C36.5026 23.2327 37.0656 24.6115 37.0656 26.3111C37.0656 27.8503 36.5187 29.1329 35.4247 30.1591C34.2986 31.2173 32.8185 31.7464 30.9846 31.7464H30.9363C29.1667 31.7464 27.7349 31.2173 26.6409 30.1591C25.547 29.1009 25 27.7701 25 26.1668ZM25.6274 68.2543V36.1235H36.3417V68.2543H25.6274ZM42.278 68.2543H52.9923V50.313C52.9923 49.1906 53.121 48.3248 53.3784 47.7156C53.8288 46.6253 54.5125 45.7034 55.4295 44.9498C56.3465 44.1962 57.4968 43.8195 58.8803 43.8195C62.4839 43.8195 64.2857 46.2405 64.2857 51.0826V68.2543H75V49.832C75 45.0861 73.8739 41.4866 71.6216 39.0335C69.3694 36.5804 66.3932 35.3539 62.693 35.3539C58.5425 35.3539 55.3089 37.1336 52.9923 40.693V40.7892H52.944L52.9923 40.693V36.1235H42.278C42.3423 37.1496 42.3745 40.3402 42.3745 45.6954C42.3745 51.0505 42.3423 58.5701 42.278 68.2543Z" fill="#8D9FCA"/>
</svg>
