<svg width="90" height="64" viewBox="0 0 90 64" fill="none" xmlns="http://www.w3.org/2000/svg">
<path d="M89.5916 57.5071L70.8694 15.898C70.1694 14.2921 69.0289 12.9249 67.5843 11.96C66.1397 10.9951 64.4522 10.4732 62.7235 10.4568C61.0025 10.4819 59.3246 11.0079 57.8888 11.9723C56.453 12.9366 54.6969 14.2991 54 15.898L59.5 36.5L43.3263 5.38142C42.5551 3.76818 41.3527 2.40797 39.8564 1.45632C38.3602 0.504675 36.6306 0 34.8653 0C33.1001 0 31.3705 0.504675 29.8743 1.45632C28.378 2.40797 27.1756 3.76818 26.4044 5.38142L0.481437 57.37C0.136203 58.066 -0.0281644 58.8402 0.00394395 59.619C0.0360523 60.3977 0.26357 61.1552 0.664892 61.8195C1.06621 62.4838 1.62801 63.0328 2.29694 63.4144C2.96587 63.7961 3.71972 63.9976 4.48689 64H85.4961C86.2491 63.9987 86.9898 63.8055 87.6503 63.438C88.3107 63.0706 88.8699 62.5406 89.2765 61.8967C89.6883 61.251 89.933 60.5103 89.9881 59.743C90.0432 58.9757 89.9068 58.2067 89.5916 57.5071Z" fill="#8D9FCA"/>
</svg>
