<svg width="84" height="82" viewBox="0 0 84 82" fill="none" xmlns="http://www.w3.org/2000/svg">
<path fill-rule="evenodd" clip-rule="evenodd" d="M70.2265 50.0446C68.4331 51.8199 67.6183 54.3783 68.0383 56.8875L70.7473 72.9431C71.5915 77.941 67.6855 82 63.2544 82C62.0868 82 60.8814 81.7171 59.7138 81.0939L45.5386 73.513C44.4297 72.9226 43.2159 72.6274 41.9979 72.6274C40.7841 72.6274 39.5703 72.9226 38.4615 73.513L24.2862 81.0939C23.1186 81.7171 21.9132 82 20.7456 82C16.3145 82 12.4085 77.941 13.2527 72.9431L15.9617 56.8875C16.3817 54.3783 15.5669 51.8199 13.7735 50.0446L2.30311 38.6753C-2.20776 34.2022 0.282888 26.4081 6.51578 25.4856L22.3668 23.1445C24.8448 22.7796 26.9869 21.197 28.0915 18.9133L35.1812 4.30908C36.5756 1.43498 39.2889 0 41.9979 0C44.7111 0 47.4244 1.43498 48.8188 4.30908L55.9085 18.9133C57.0131 21.197 59.1552 22.7796 61.6332 23.1445L77.4842 25.4856C83.7171 26.4081 86.2078 34.2022 81.6969 38.6753L70.2265 50.0446Z" fill="#8D9FCA"/>
</svg>
