<svg width="82" height="100" viewBox="0 0 82 100" fill="none" xmlns="http://www.w3.org/2000/svg">
<path d="M41 84.2786C39.974 84.2786 38.9623 83.83 38 83.0002V100H44V83C43.0377 83.8298 42.026 84.2786 41 84.2786Z" fill="#8D9FCA"/>
<path d="M72.9889 38.7574C73.6938 36.8563 74.0998 34.8084 74.0998 32.66C74.0998 24.4141 68.4082 17.5109 60.7393 15.625C58.6242 6.67109 50.6012 0 41.0004 0C31.3996 0 23.3766 6.67109 21.2615 15.625C13.5955 17.5109 7.90098 24.4141 7.90098 32.66C7.90098 34.8084 8.30391 36.8531 9.00879 38.7574C3.98262 42.45 0.708008 48.3889 0.708008 55.1088C0.708008 66.3209 9.79317 75.4092 21.0084 75.4092C23.8496 75.4092 26.5535 74.8232 29.007 73.7674C31.4941 75.8793 34.543 77.3379 37.8937 77.9057V68.1461L23.8252 54.0713C22.6105 52.8598 22.6105 50.8943 23.8252 49.6828C25.0367 48.4682 27.0021 48.4682 28.2137 49.6828L37.8939 59.36V48.7002L28.2443 39.0506C27.3441 38.1473 27.3441 36.6885 28.2443 35.7883C29.1445 34.8881 30.6064 34.8881 31.5037 35.7883L37.8941 42.1756V30.4721C37.8941 28.757 39.2857 27.3684 41.0008 27.3684C42.7158 27.3684 44.1074 28.7568 44.1074 30.4721V42.1756L50.4979 35.7883C51.3951 34.8881 52.8568 34.8881 53.7572 35.7883C54.6576 36.6885 54.6574 38.1473 53.7572 39.0506L44.1076 48.7002V59.36L53.7879 49.6828C54.9994 48.4682 56.9648 48.4682 58.1764 49.6828C59.391 50.8943 59.391 52.8598 58.1764 54.0713L44.1078 68.1461V77.9057C47.4586 77.3381 50.5074 75.8793 52.9945 73.7705C55.4482 74.8234 58.149 75.4094 60.9902 75.4094C72.2055 75.4094 81.2936 66.3213 81.2936 55.109C81.2928 48.3887 78.0182 42.45 72.9889 38.7574Z" fill="#8D9FCA"/>
</svg>
