<svg width="100" height="100" viewBox="0 0 100 100" fill="none" xmlns="http://www.w3.org/2000/svg">
<path d="M51.2185 69.3894L39.9346 69.1785C36.2812 69.105 32.6186 69.2517 29.0368 68.4904C23.588 67.3529 23.202 61.7754 22.798 57.0969C22.2415 50.5196 22.4569 43.8228 23.5072 37.3004C24.1002 33.6406 26.4336 31.4568 30.0422 31.2192C42.2237 30.3568 54.4862 30.459 66.6407 30.8613C67.9244 30.8982 69.2169 31.0998 70.4827 31.3293C76.7308 32.4485 76.8831 38.7691 77.2881 44.0898C77.6921 49.4654 77.5215 54.8686 76.7495 60.2076C76.1301 64.6282 74.9451 68.3352 69.944 68.6931C63.678 69.1611 57.5558 69.5378 51.2722 69.4179C51.2725 69.3894 51.2364 69.3894 51.2185 69.3894ZM44.5847 58.1978C49.3066 55.4272 53.9385 52.7028 58.6334 49.9508C53.9027 47.1802 49.2796 44.4558 44.5847 41.7038V58.1978Z" fill="#8D9FCA"/>
</svg>
