<svg width="141" height="140" viewBox="0 0 141 140" fill="none" xmlns="http://www.w3.org/2000/svg">
<rect x="0.671875" width="140" height="140" rx="8" fill="white"/>
<path d="M77.0084 41.2738C76.2353 39.7703 70.8023 34.7873 70.7809 34.7659C70.7594 34.7873 65.3479 39.7703 64.5534 41.2738C64.5534 41.2738 60.9887 46.4285 66.5719 51.1967C67.6886 51.9484 68.977 52.378 70.7809 52.378C72.5847 52.378 73.8731 51.9484 74.9898 51.1967C80.5731 46.45 77.0084 41.2738 77.0084 41.2738Z" fill="#242B3C"/>
<path fill-rule="evenodd" clip-rule="evenodd" d="M85.9933 51.1843C88.9484 48.3427 92.0685 45.3425 95.1023 41.7804C96.0358 42.0081 118.007 61.2791 88.4769 78.973L75.4242 87.3633L88.9071 95.9187C88.9071 95.9187 82.7031 105.209 70.6966 105.234V105.234C70.6866 105.234 70.6765 105.234 70.6665 105.234C70.66 105.234 70.6536 105.234 70.6471 105.234V105.234C58.6407 105.209 52.4366 95.9187 52.4366 95.9187L65.9195 87.3633L52.8669 78.9731C23.3371 61.2792 45.308 42.0082 46.2415 41.7804C49.2751 45.3423 52.3967 48.3441 55.3543 51.1881C63.097 58.6335 69.7147 64.9972 70.6825 77.4957C71.6439 64.9823 78.2527 58.6274 85.9933 51.1843Z" fill="#242B3C"/>
</svg>
