<svg width="802" height="134" viewBox="0 0 802 134" fill="none" xmlns="http://www.w3.org/2000/svg">
<path d="M75.1205 12.7724C73.6633 9.9383 63.4221 0.54537 63.3816 0.504883C63.3411 0.54537 53.1404 9.9383 51.6426 12.7724C51.6426 12.7724 44.9231 22.4892 55.4477 31.4773C57.5526 32.8943 59.9813 33.704 63.3816 33.704C66.7818 33.704 69.2106 32.8943 71.3155 31.4773C81.84 22.5297 75.1205 12.7724 75.1205 12.7724Z" fill="white"/>
<path fill-rule="evenodd" clip-rule="evenodd" d="M92.0574 31.454C97.6279 26.0975 103.509 20.4421 109.228 13.7275C110.988 14.1568 152.403 50.483 96.739 83.8363L72.1346 99.652L97.5501 115.779C97.5501 115.779 85.8552 133.291 63.2227 133.339V133.339C63.2072 133.339 63.1917 133.339 63.1762 133.339C63.1607 133.339 63.1452 133.339 63.1297 133.339V133.339C40.4972 133.291 28.8023 115.779 28.8023 115.779L54.2179 99.652L29.6134 83.8363C-26.0507 50.483 15.3647 14.1568 17.1244 13.7275C22.8428 20.4417 28.7272 26.1002 34.3022 31.4612C48.8975 45.4962 61.3723 57.4921 63.1962 81.0528C65.008 57.464 77.466 45.4847 92.0574 31.454Z" fill="white"/>
<path d="M291.835 55.0361C287.516 50.3743 280.931 48.0219 272.25 48.0219H271.181C267.162 48.1075 263.484 49.0912 260.277 50.973C257.925 52.2561 256.001 53.9241 254.419 55.9343V24.3276H241.291V109.311H254.419V79.7141C254.419 72.2295 255.83 66.9261 258.609 64.0177C261.432 61.0239 265.579 59.4842 270.925 59.4842H271.438C276.27 59.5697 279.733 60.8528 281.829 63.3334C284.01 65.7285 285.121 70.0482 285.121 76.0787V109.311H298.249V76.0787C298.249 66.6694 296.068 59.5697 291.792 55.0361H291.835Z" fill="white"/>
<path d="M530.486 56.8329C525.055 50.9735 517.273 48.0224 507.309 48.0224C497.346 48.0224 493.326 50.6313 488.067 55.7637V49.3055H475.324V133.005H488.452V103.067C493.412 107.814 499.313 110.338 506.112 110.594H507.78C517.145 110.594 524.671 107.814 530.187 102.297C535.789 96.7369 538.611 89.1239 538.611 79.6718C538.611 70.2198 535.874 62.564 530.486 56.8329ZM525.098 79.6718C525.098 85.2746 523.302 90.1076 519.753 93.9568C516.247 97.8061 511.586 99.7735 505.984 99.7735C500.382 99.7735 496.063 97.8489 492.899 93.8713C489.692 89.9793 488.024 85.1036 488.024 79.2869C488.024 73.4703 489.606 68.1668 492.771 64.4459C495.849 60.7249 500.297 58.8003 505.984 58.8003C511.671 58.8003 516.503 60.7677 519.881 64.617C523.345 68.3807 525.098 73.4703 525.098 79.7146V79.6718Z" fill="white"/>
<path d="M657.145 40.9664C659.625 40.9664 661.763 40.1111 663.431 38.4003C665.227 36.6895 666.168 34.551 666.168 32.0704C666.168 29.5898 665.313 27.4513 663.602 25.655C661.806 23.9014 659.625 23.046 657.188 23.046C654.75 23.046 652.57 23.9442 650.859 25.7405C649.149 27.4513 648.251 29.5898 648.251 32.0704C648.251 34.551 649.106 36.6467 650.859 38.4003C652.57 40.1111 654.708 40.9664 657.188 40.9664H657.145Z" fill="white"/>
<path d="M663.858 49.3066H650.731V109.312H663.858V49.3066Z" fill="white"/>
<path d="M792.4 56.7896C786.542 50.9729 778.545 47.9791 768.582 47.9791C758.618 47.9791 750.622 50.9302 744.764 56.7896C738.82 62.6062 735.827 70.1764 735.827 79.2863C735.827 88.3962 738.777 96.052 744.635 101.911C750.579 107.643 758.618 110.551 768.582 110.551C778.545 110.551 786.67 107.685 792.528 101.997C798.387 96.2658 801.337 88.6101 801.337 79.2436C801.337 69.8771 798.344 62.6062 792.4 56.7468V56.7896ZM782.437 94.1273C778.973 97.8911 774.312 99.8157 768.539 99.8157C762.766 99.8157 757.977 97.8911 754.513 94.1273C751.05 90.3636 749.296 85.3596 749.296 79.3291C749.296 73.2986 751.05 68.5084 754.513 64.6592C758.02 60.8099 762.766 58.8425 768.539 58.8425C774.312 58.8425 779.016 60.8099 782.522 64.6164C785.986 68.5084 787.739 73.4269 787.739 79.3291C787.739 85.2313 785.943 90.3636 782.394 94.1273H782.437Z" fill="white"/>
<path d="M161.285 24.3276V36.0465H191.346V109.311H204.901V68.1236V43.6595C204.901 39.468 201.48 36.0465 197.29 36.0465H228.334H235.39V24.3276H161.327H161.285Z" fill="white"/>
<path d="M382.874 52.4275C386.124 49.177 390.4 49.2198 395.275 49.2626C395.959 49.2626 396.686 49.2626 397.413 49.2626H405.366V60.126H405.152H375.733C379.923 60.126 383.259 63.5048 383.259 67.6962V109.268H369.832V49.3053H382.874" fill="white"/>
<path d="M641.452 97.5911V109.31H629.436C623.834 109.31 619.9 108.326 617.463 106.273C615.111 104.178 613.914 100.457 613.914 95.1105V61.0232H605.618V49.3043H613.914V32.3676H627.042V49.3043H641.452V61.0232H627.042H619.473C623.578 61.0232 626.913 64.2737 627.042 68.3368V95.2815C627.042 96.5646 628.111 97.5911 629.393 97.5911H641.452Z" fill="white"/>
<path d="M362.562 92.0322C362.947 90.4497 363.033 89.466 363.033 89.466H349.52C347.168 95.1116 341.139 99.132 334.083 99.132C327.028 99.132 320.571 94.855 318.433 88.91C317.107 86.4722 314.712 84.6759 311.89 84.3337C311.548 84.3337 311.206 84.2909 310.907 84.2909H363.717C364.487 78.9875 363.973 73.4703 363.973 73.4703C363.246 66.7554 360.766 61.0243 356.576 56.448C351.573 50.8452 344.303 48.0224 334.938 48.0224C325.574 48.0224 317.406 50.9307 312.018 56.7046C306.716 62.4357 304.022 70.0915 304.022 79.4152C304.022 88.739 306.801 96.4802 312.318 102.169C317.919 107.729 325.531 110.551 334.981 110.594C340.626 110.594 346.142 108.712 349.862 107.044C356.191 104.222 360.937 98.7043 362.648 92.0322H362.562ZM322.666 63.2483C325.788 60.2972 329.935 58.8431 335.024 58.8431C340.113 58.8431 343.277 60.2545 346.227 62.9917C349.178 65.7717 350.632 68.9795 350.632 72.8287V73.2564H317.62C318.176 69.3216 319.886 65.9428 322.666 63.2483Z" fill="white"/>
<path d="M601.513 92.0322C601.898 90.4497 601.983 89.466 601.983 89.466H588.471C586.119 95.1116 580.089 99.132 573.034 99.132C565.978 99.132 559.521 94.855 557.383 88.91C556.057 86.4722 553.663 84.6759 550.841 84.3337C550.498 84.3337 550.156 84.2909 549.857 84.2909H602.667C603.437 78.9875 602.924 73.4703 602.924 73.4703C602.197 66.7554 599.717 61.0243 595.526 56.448C590.523 50.8452 583.254 48.0224 573.889 48.0224C564.524 48.0224 556.357 50.9307 550.969 56.7046C545.666 62.4357 542.972 70.0915 542.972 79.4152C542.972 88.739 545.752 96.4802 551.268 102.169C556.87 107.729 564.481 110.551 573.932 110.594C579.576 110.594 585.092 108.712 588.813 107.044C595.141 104.222 599.888 98.7043 601.598 92.0322H601.513ZM561.616 63.2483C564.738 60.2972 568.886 58.8431 573.974 58.8431C579.063 58.8431 582.227 60.2545 585.178 62.9917C588.128 65.7717 589.582 68.9795 589.582 72.8287V73.2564H556.571C557.126 69.3216 558.837 65.9428 561.616 63.2483Z" fill="white"/>
<path d="M409.044 66.9265V67.6108H423.326V67.4825C423.326 66.6699 423.626 62.7351 428.073 60.4256C428.672 60.1689 429.356 59.9123 430.125 59.6557C432.007 59.0997 434.273 58.8003 436.882 58.8003C445.006 58.8003 449.111 62.6496 449.368 70.6047C448.769 70.6475 447.829 70.7758 446.118 70.9469C443.809 71.2035 441.757 71.4173 440.046 71.5884C438.378 71.7595 436.026 72.1444 433.119 72.7432C430.254 73.2564 427.688 73.898 425.507 74.5823C423.326 75.181 420.932 76.0792 418.366 77.234C415.8 78.3887 413.62 79.6718 411.909 81.126C410.284 82.5802 408.916 84.3337 407.847 86.4294C406.649 88.6107 406.051 90.963 406.051 93.4436C406.051 98.5332 407.975 102.725 411.824 105.89C415.587 109.012 421.017 110.637 427.945 110.637C434.872 110.637 445.049 107.686 450.223 101.826C450.993 104.35 452.404 106.232 454.371 107.429C456.68 108.712 460.058 109.354 464.634 109.354H469.894V97.635H464.89C463.522 97.635 463.052 97.3784 462.923 97.2501C462.752 97.0363 462.496 96.4803 462.496 95.1116V70.9041C462.496 63.9754 460.358 58.3299 456.167 54.224C452.019 50.1181 445.605 48.0224 437.01 48.0224C428.415 48.0224 427.431 48.7067 423.626 50.0326C419.82 51.3584 417.083 52.9837 415.159 54.4806C413.235 55.9775 411.353 58.8859 410.455 60.9816C409.557 63.0773 409.172 64.9164 409.087 66.9693L409.044 66.9265ZM449.325 85.9162C449.325 89.7654 447.23 92.9732 442.868 95.6676C438.549 98.3193 433.888 99.688 429.056 99.688C424.902 99.5815 424.011 99.132 422.257 98.02C420.59 96.9507 419.82 95.4966 419.82 93.4436C419.82 91.3907 421.402 88.4824 424.695 86.5577C428.928 84.1199 437.224 82.3235 449.325 81.1688V85.9162Z" fill="white"/>
<path d="M718.08 87.627C717.268 90.0648 716.028 92.2461 714.36 94.1279C711.153 97.8916 706.791 99.8163 701.403 99.8163C696.015 99.8163 691.568 97.8916 688.361 94.1279C685.154 90.3642 683.486 85.3602 683.486 79.3297C683.486 73.2992 685.111 68.509 688.361 64.6597C691.654 60.8105 696.058 58.8431 701.403 58.8431C706.748 58.8431 711.196 60.8105 714.445 64.617C715.472 65.8573 716.327 67.2259 717.054 68.6801H730.438C729.07 64.1893 726.803 60.2117 723.596 56.8329C718.166 51.0163 710.682 48.0224 701.403 48.0224C692.124 48.0224 684.641 50.9735 679.21 56.8329C673.694 62.6496 670.872 70.2198 670.872 79.3297C670.872 88.4396 673.651 96.0953 679.082 101.955C684.598 107.686 692.124 110.594 701.403 110.594C710.682 110.594 718.294 107.729 723.725 102.04C727.445 98.1055 729.925 93.2725 731.122 87.5842H718.037L718.08 87.627Z" fill="white"/>
</svg>
